<svg xmlns="http://www.w3.org/2000/svg" width="58" height="68" viewBox="0 0 58 68">
  <g id="Grupo_5" data-name="Grupo 5" transform="translate(-1386 -268)">
    <g id="Grupo_4" data-name="Grupo 4">
      <g id="Group" transform="translate(1386 268)" opacity="0.2">
        <path id="Path" d="M1.878.1A1,1,0,0,0,.544.565a3.9,3.9,0,0,0-.4,2.924A2.941,2.941,0,0,0,2.9,5.4h.033A3.721,3.721,0,0,0,5.7,4.043c.053-.062.105-.127.159-.193.066-.082.156-.194.227-.266.1.076.231.209.328.306a2.437,2.437,0,0,0,1.94.928,2.388,2.388,0,0,0,.826-.26c.047-.022.094-.046.142-.065a2.713,2.713,0,0,1,1.091-.047l.3.021.042,0,4.438.08a1,1,0,1,0,.036-1.992l-4.417-.08-.248-.018a4.227,4.227,0,0,0-2,.19c-.083.034-.165.072-.246.111-.038.018-.085.04-.122.057a3.561,3.561,0,0,1-.374-.34,2.375,2.375,0,0,0-1.989-.914A2.4,2.4,0,0,0,4.306,2.6c-.042.052-.084.1-.126.154A1.718,1.718,0,0,1,2.92,3.4a.959.959,0,0,1-.881-.555,2.063,2.063,0,0,1,.306-1.421A1,1,0,0,0,1.878.1Z" transform="translate(29.508 56.05)"/>
        <path id="Path-2" data-name="Path" d="M50.359,42.658a1,1,0,0,0-1,1V49a1.664,1.664,0,0,1-1.665,1.66H3.663A1.664,1.664,0,0,1,2,49V1A1,1,0,0,0,0,1V49a3.662,3.662,0,0,0,3.663,3.652H47.695A3.662,3.662,0,0,0,51.358,49V43.654A1,1,0,0,0,50.359,42.658Z" transform="translate(0 15.343)"/>
        <path id="Path-3" data-name="Path" d="M1,1.992H20.343a1,1,0,1,0,0-1.992H1A1,1,0,1,0,1,1.992Z" transform="translate(7.224 17.352)"/>
        <path id="Path-4" data-name="Path" d="M1,1.992h27.78a1,1,0,1,0,0-1.992H1A1,1,0,1,0,1,1.992Z" transform="translate(7.224 21.708)"/>
        <path id="Shape" d="M3.663,23.6A3.662,3.662,0,0,1,0,19.943V3.652A3.662,3.662,0,0,1,3.663,0H34.832a3.662,3.662,0,0,1,3.663,3.652V19.943A3.662,3.662,0,0,1,34.832,23.6Z" transform="translate(7.224 27.511)"/>
        <path id="Shape-2" data-name="Shape" d="M2.331,7.522A2.331,2.331,0,0,1,0,5.2V2.324A2.331,2.331,0,0,1,2.331,0H19.012a2.331,2.331,0,0,1,2.331,2.324V5.2a2.331,2.331,0,0,1-2.331,2.325Z" transform="translate(7.224 5.579)"/>
        <path id="Path-5" data-name="Path" d="M1,1.992H6.688A1,1,0,1,0,6.688,0H1A1,1,0,1,0,1,1.992Z" transform="translate(31.714 6.288)"/>
        <path id="Path-6" data-name="Path" d="M1,1.992H6.688A1,1,0,1,0,6.688,0H1A1,1,0,1,0,1,1.992Z" transform="translate(31.714 10.4)"/>
        <path id="Path-7" data-name="Path" d="M1,1.992H9.667A1,1,0,1,0,9.667,0H1A1,1,0,1,0,1,1.992Z" transform="translate(7.224 59.454)"/>
        <path id="Path-8" data-name="Path" d="M1,1.992H9.667A1,1,0,1,0,9.667,0H1A1,1,0,1,0,1,1.992Z" transform="translate(7.224 54.918)"/>
        <path id="Shape-3" data-name="Shape" d="M49.36,54.348V26.22h-.054a8.669,8.669,0,1,1,0-17.339h.054V3.652a1.664,1.664,0,0,0-1.665-1.66H3.663A1.664,1.664,0,0,0,2,3.652V11.69a1,1,0,0,1-2,0V3.652A3.662,3.662,0,0,1,3.663,0H47.695a3.662,3.662,0,0,1,3.663,3.652V9.128a8.662,8.662,0,0,1,0,16.847V54.348a1,1,0,0,1-2,0Z"/>
        <path id="Path-9" data-name="Path" d="M5.792.292l-3.2,3.194L1.705,2.6A1,1,0,0,0,.293,4.013L1.883,5.6A1,1,0,0,0,3.3,5.6L7.2,1.7A1,1,0,0,0,5.792.292Z" transform="translate(45.557 14.606)"/>
      </g>
    </g>
  </g>
</svg>
