<svg xmlns="http://www.w3.org/2000/svg" width="80" height="66" viewBox="0 0 80 66">
  <g id="Group" opacity="0.2">
    <path id="Shape" d="M1.172,66a1.177,1.177,0,0,1,0-2.354h.788V61.808a1.172,1.172,0,1,1,2.344,0v1.837H9.594V48.825H4.3V57.1a1.172,1.172,0,1,1-2.344,0V47.648A1.175,1.175,0,0,1,3.131,46.47H9.593V30.065a1.175,1.175,0,0,1,1.172-1.178h3.682a1.178,1.178,0,0,1,0,2.355h-2.51v32.4h5.244V56.9a3.991,3.991,0,0,1,3.976-4h7.516a3.991,3.991,0,0,1,3.976,4v6.743h5.244v-32.4H19.134a1.178,1.178,0,0,1,0-2.355H23.2V22.973h-.207a1.178,1.178,0,0,1,0-2.355H23.2V16.327h-.207a1.177,1.177,0,0,1,0-2.354H23.2V9.681h-.207a1.178,1.178,0,0,1,0-2.355H23.2V2.355h-.207a1.178,1.178,0,0,1,0-2.355H33.066a1.178,1.178,0,0,1,0,2.355h-.207V7.326h.207a1.178,1.178,0,0,1,0,2.355h-.207v4.291h.207a1.177,1.177,0,0,1,0,2.354h-.207v4.291h.207a1.178,1.178,0,0,1,0,2.355h-.207v5.913h6.206a1.175,1.175,0,0,1,1.172,1.178v6.829h1.286V29.429a8.225,8.225,0,0,1,8.2-8.235h6.164l.254-1.954-1.315-.816a1.181,1.181,0,0,1-.147-1.9l2.042-1.76,1.04-8.017H54.3V9.263h.314a1.177,1.177,0,0,1,0,2.354H51.645a1.177,1.177,0,0,1,0-2.354h.315V5.574A1.174,1.174,0,0,1,53.132,4.4h4.932L58.5,1.025A1.175,1.175,0,0,1,59.664,0h8.944A1.174,1.174,0,0,1,69.77,1.025L70.207,4.4H75.14a1.175,1.175,0,0,1,1.172,1.178V9.263h.315a1.178,1.178,0,0,1,0,2.355H73.654a1.178,1.178,0,0,1,0-2.355h.314V6.751H70.513l1.04,8.017,2.042,1.76a1.181,1.181,0,0,1-.148,1.9l-1.314.816,1.012,7.795,1.989,1.235a1.18,1.18,0,0,1-.059,2.038l-1.406.763,1.072,8.258,1.393.756a1.18,1.18,0,0,1-.054,2.1l-.912.435,1.1,8.441.868.414a1.18,1.18,0,0,1,.022,2.116l-.527.266L77.9,63.645h.931a1.177,1.177,0,0,1,0,2.354Z"/>
    <path id="Path" d="M.413,9.8a1.168,1.168,0,0,0,1.652-.135l3.3-3.908a1.178,1.178,0,0,0-.893-1.94H3.783L5.37,1.94A1.181,1.181,0,0,0,5.235.28,1.168,1.168,0,0,0,3.583.415L.357,4.231a1.178,1.178,0,0,0,.893,1.94h.693L.279,8.139A1.181,1.181,0,0,0,.413,9.8Z" transform="translate(22.091 33.44)"/>
  </g>
</svg>
