<svg xmlns="http://www.w3.org/2000/svg" width="64" height="70" viewBox="0 0 64 70">
  <g id="bulb" opacity="0.2">
    <path id="Shape" d="M7.378,32.233a9.234,9.234,0,0,1,.109-1.328A16.9,16.9,0,0,1,20.259.318a16.867,16.867,0,0,1,6.228,30.587,9.234,9.234,0,0,1,.109,1.328,9.609,9.609,0,0,1-19.218,0Z" transform="translate(14.995 16.164)"/>
    <path id="Path" d="M14.559,0H1.213a1.207,1.207,0,1,0,0,2.414H14.559a1.207,1.207,0,1,0,0-2.414Z" transform="translate(24.096 59.79)"/>
    <path id="Path-2" data-name="Path" d="M10.41,0h-9.2a1.207,1.207,0,1,0,0,2.414H10.4A1.207,1.207,0,1,0,10.4,0Z" transform="translate(26.17 63.688)"/>
    <path id="Path-3" data-name="Path" d="M6.406,0H1.213a1.207,1.207,0,1,0,0,2.414h5.2A1.207,1.207,0,1,0,6.418,0Z" transform="translate(28.172 67.586)"/>
    <path id="Path-4" data-name="Path" d="M1.213,9.655A1.21,1.21,0,0,0,2.427,8.448V1.207A1.213,1.213,0,0,0,0,1.207V8.448A1.21,1.21,0,0,0,1.213,9.655Z" transform="translate(30.769)"/>
    <path id="Path-5" data-name="Path" d="M1.2,7.483a1.217,1.217,0,0,0,.861-.35L7.226,1.992A1.2,1.2,0,0,0,7.162.353,1.218,1.218,0,0,0,5.515.29L.359,5.432A1.206,1.206,0,0,0,1.22,7.5Z" transform="translate(47.395 9.051)"/>
    <path id="Path-6" data-name="Path" d="M8.493,0H1.213a1.207,1.207,0,1,0,0,2.414h7.28A1.207,1.207,0,1,0,8.493,0Z" transform="translate(54.294 30.643)"/>
    <path id="Path-7" data-name="Path" d="M2,.285A1.218,1.218,0,0,0,.349.36,1.2,1.2,0,0,0,.3,2L5.454,7.08A1.218,1.218,0,0,0,7.1,7.016a1.2,1.2,0,0,0,.064-1.638Z" transform="translate(47.457 47.231)"/>
    <path id="Path-8" data-name="Path" d="M5.682.278.513,5.42A1.2,1.2,0,0,0,.989,7.591a1.216,1.216,0,0,0,1.235-.518L7.38,1.992A1.2,1.2,0,0,0,7.317.353,1.218,1.218,0,0,0,5.67.29Z" transform="translate(8.829 47.237)"/>
    <path id="Path-9" data-name="Path" d="M9.706,1.207A1.21,1.21,0,0,0,8.493,0H1.213a1.207,1.207,0,1,0,0,2.414h7.28A1.21,1.21,0,0,0,9.706,1.207Z" transform="translate(0 30.643)"/>
    <path id="Path-10" data-name="Path" d="M5.472,7.133A1.215,1.215,0,0,0,7.6,6.643a1.2,1.2,0,0,0-.433-1.211L2,.29A1.218,1.218,0,0,0,.355.353,1.2,1.2,0,0,0,.292,1.992Z" transform="translate(9.038 9.051)"/>
  </g>
</svg>
