<svg xmlns="http://www.w3.org/2000/svg" width="80" height="80" viewBox="0 0 80 80">
  <g id="Group" transform="translate(0)" opacity="0.2">
    <path id="Shape" d="M4.675,46.25a1.25,1.25,0,0,1,0-2.5v-2.5a2.5,2.5,0,0,1,2.5-2.5V36.138a1.25,1.25,0,0,1,2.5,0V38.75h5V27.5h-1.55a1.25,1.25,0,1,1,0-2.5h3.7l-.188-3.75H12.2a1.25,1.25,0,0,1,0-2.5h4.321L16.328,15h-5.07a1.25,1.25,0,0,1,0-2.5H16.2l-.187-3.75H10.227a1.25,1.25,0,0,1,0-2.5H15.89L15.7,2.5H1.25a1.25,1.25,0,0,1,0-2.5H23.1a4.99,4.99,0,0,1,4.946,4.244l2.839,18.946A3.757,3.757,0,0,1,27.174,27.5h-10V38.75a2.5,2.5,0,0,1,2.5,2.5v2.5a1.25,1.25,0,1,1,0,2.5Z" transform="translate(49.074 33.75)"/>
    <path id="Shape-2" data-name="Shape" d="M11.249,41.25a1.25,1.25,0,1,1,0-2.5v-2.5a2.5,2.5,0,0,1,2.5-2.5V27.5h-10A3.75,3.75,0,0,1,.041,23.194L2.882,4.258A4.97,4.97,0,0,1,7.826,0H29.671a4.968,4.968,0,0,1,4.944,4.258l2.84,18.936A3.75,3.75,0,0,1,33.747,27.5h-10v6.25a2.5,2.5,0,0,1,2.5,2.5v2.5a1.25,1.25,0,0,1,0,2.5Z" transform="translate(21.252 38.75)"/>
    <path id="Shape-3" data-name="Shape" d="M11.252,46.25a1.25,1.25,0,0,1,0-2.5v-2.5a2.5,2.5,0,0,1,2.5-2.5V27.5h-10A3.759,3.759,0,0,1,.041,23.191L2.878,4.252A4.993,4.993,0,0,1,7.826,0H29.676a1.25,1.25,0,0,1,0,2.5H15.223L15.035,6.25H20.7a1.25,1.25,0,0,1,0,2.5H14.91l-.187,3.75h4.945a1.25,1.25,0,1,1,0,2.5H14.6L14.41,18.75h4.321a1.25,1.25,0,0,1,0,2.5H14.286L14.1,25h3.7a1.25,1.25,0,0,1,0,2.5H16.251V38.75h5V36.138a1.25,1.25,0,0,1,2.5,0V38.75a2.5,2.5,0,0,1,2.5,2.5v2.5a1.25,1.25,0,0,1,0,2.5Z" transform="translate(0 33.75)"/>
    <path id="Shape-4" data-name="Shape" d="M0,10A10,10,0,1,1,10,20,10,10,0,0,1,0,10Z" transform="translate(30.001 7.5)"/>
    <path id="Path" d="M1.25,2.5A3.754,3.754,0,0,1,5,6.25a1.25,1.25,0,1,0,2.5,0A6.257,6.257,0,0,0,1.25,0a1.25,1.25,0,0,0,0,2.5Z" transform="translate(38.75 11.25)"/>
    <path id="Path-2" data-name="Path" d="M0,1.25v2.5a1.25,1.25,0,1,0,2.5,0V1.25a1.25,1.25,0,1,0-2.5,0Z" transform="translate(38.75 30)"/>
    <path id="Path-3" data-name="Path" d="M2.134.366A1.25,1.25,0,0,0,.366,2.134L2.134,3.9A1.25,1.25,0,0,0,3.9,2.134Z" transform="translate(48.473 25.973)"/>
    <path id="Path-4" data-name="Path" d="M1.25,2.5h2.5a1.25,1.25,0,0,0,0-2.5H1.25a1.25,1.25,0,0,0,0,2.5Z" transform="translate(52.5 16.25)"/>
    <path id="Path-5" data-name="Path" d="M1.25,4.268A1.246,1.246,0,0,0,2.133,3.9L3.9,2.134A1.25,1.25,0,1,0,2.133.366L.366,2.134A1.25,1.25,0,0,0,1.25,4.267Z" transform="translate(48.473 4.76)"/>
    <path id="Path-6" data-name="Path" d="M1.25,5A1.25,1.25,0,0,0,2.5,3.75V1.25a1.25,1.25,0,1,0-2.5,0v2.5A1.25,1.25,0,0,0,1.25,5Z" transform="translate(38.75)"/>
    <path id="Path-7" data-name="Path" d="M2.134,3.9A1.25,1.25,0,0,0,3.9,2.134L2.134.366A1.25,1.25,0,0,0,.366,2.134Z" transform="translate(27.26 4.76)"/>
    <path id="Path-8" data-name="Path" d="M1.25,2.5h2.5a1.25,1.25,0,0,0,0-2.5H1.25a1.25,1.25,0,0,0,0,2.5Z" transform="translate(22.501 16.25)"/>
    <path id="Path-9" data-name="Path" d="M2.134.366.366,2.134A1.25,1.25,0,1,0,2.134,3.9L3.9,2.134A1.25,1.25,0,0,0,2.134.366Z" transform="translate(27.26 25.973)"/>
  </g>
</svg>
