<svg xmlns="http://www.w3.org/2000/svg" width="80" height="69" viewBox="0 0 80 69">
  <g id="cogwheel" opacity="0.2">
    <path id="Path" d="M9.041,0A14.493,14.493,0,0,0,.483,2.771,1.163,1.163,0,0,0,.225,4.4a1.177,1.177,0,0,0,1.639.256,12.216,12.216,0,0,1,19.382,9.82,12.013,12.013,0,0,1-2.272,7.051,1.171,1.171,0,0,0,1.909,1.358,14.327,14.327,0,0,0,2.71-8.409A14.531,14.531,0,0,0,9.041,0Z" transform="translate(19.557 26.072)"/>
    <path id="Shape" d="M27.153,56.9a3.191,3.191,0,0,1-3.1-2.394c-.3-1.182-.711-2.948-1.027-4.952a21.809,21.809,0,0,1-5.493-2.264c-1.653,1.2-3.194,2.159-4.246,2.78A3.206,3.206,0,0,1,9.4,49.585L7.355,47.552a3.166,3.166,0,0,1-.49-3.873c.625-1.046,1.59-2.579,2.795-4.224a21.6,21.6,0,0,1-2.276-5.464c-2.014-.315-3.789-.721-4.978-1.022A3.18,3.18,0,0,1,0,29.888V27.014a3.179,3.179,0,0,1,2.406-3.082c1.189-.3,2.964-.707,4.978-1.021A21.6,21.6,0,0,1,9.66,17.446c-1.2-1.645-2.17-3.179-2.795-4.224a3.165,3.165,0,0,1,.49-3.873L9.4,7.317a3.206,3.206,0,0,1,3.892-.487c1.052.621,2.594,1.582,4.246,2.781a21.778,21.778,0,0,1,5.493-2.265c.316-2,.724-3.77,1.027-4.952A3.191,3.191,0,0,1,27.153,0h2.889a3.191,3.191,0,0,1,3.1,2.394c.3,1.182.711,2.948,1.027,4.952a21.8,21.8,0,0,1,5.493,2.265c1.653-1.2,3.195-2.16,4.246-2.781a3.206,3.206,0,0,1,3.892.487l2.044,2.032a3.165,3.165,0,0,1,.489,3.873c-.624,1.046-1.59,2.579-2.794,4.224a21.537,21.537,0,0,1,2.276,5.465c2.014.314,3.789.72,4.978,1.021A3.182,3.182,0,0,1,57.2,27.014v2.875a3.182,3.182,0,0,1-2.407,3.082c-1.188.3-2.963.707-4.977,1.021a21.58,21.58,0,0,1-2.277,5.464c1.205,1.644,2.171,3.178,2.8,4.225a3.165,3.165,0,0,1-.49,3.872L47.8,49.586a3.208,3.208,0,0,1-3.892.486c-1.05-.621-2.592-1.581-4.245-2.78a21.809,21.809,0,0,1-5.493,2.264c-.317,2-.725,3.77-1.027,4.952a3.192,3.192,0,0,1-3.1,2.394Z" transform="translate(0 12.098)"/>
    <path id="Path-2" data-name="Path" d="M23.056,18.908a1.177,1.177,0,0,0-1.631-.306A12.218,12.218,0,0,1,2.347,8.567,12.038,12.038,0,0,1,4.406,1.817,1.164,1.164,0,0,0,4.084.2a1.177,1.177,0,0,0-1.628.32A14.356,14.356,0,0,0,0,8.567,14.567,14.567,0,0,0,22.749,20.53,1.164,1.164,0,0,0,23.056,18.908Z" transform="translate(14.045 31.983)"/>
    <path id="Shape-2" data-name="Shape" d="M14.249,29.8a2.188,2.188,0,0,1-2.124-1.642c-.137-.534-.315-1.3-.467-2.176a11.479,11.479,0,0,1-2.211-.913c-.733.516-1.4.931-1.877,1.211A2.2,2.2,0,0,1,4.9,25.945L3.872,24.923a2.171,2.171,0,0,1-.335-2.655c.282-.472.7-1.139,1.218-1.868a11.447,11.447,0,0,1-.917-2.2c-.882-.151-1.651-.329-2.188-.464A2.181,2.181,0,0,1,0,15.622V14.176a2.181,2.181,0,0,1,1.65-2.113c.536-.136,1.306-.314,2.188-.464a11.367,11.367,0,0,1,.917-2.2C4.236,8.669,3.819,8,3.537,7.53a2.17,2.17,0,0,1,.335-2.655L4.9,3.852a2.2,2.2,0,0,1,2.668-.333c.474.281,1.144.7,1.877,1.211a11.51,11.51,0,0,1,2.212-.913c.152-.878.33-1.642.467-2.176A2.188,2.188,0,0,1,14.249,0H15.7a2.188,2.188,0,0,1,2.124,1.642c.137.534.315,1.3.466,2.176a11.51,11.51,0,0,1,2.212.913c.733-.516,1.4-.931,1.877-1.211a2.2,2.2,0,0,1,2.668.333l1.029,1.023a2.17,2.17,0,0,1,.335,2.655C26.132,8,25.715,8.669,25.2,9.4a11.4,11.4,0,0,1,.916,2.2c.882.15,1.652.329,2.188.464a2.181,2.181,0,0,1,1.651,2.113v1.446a2.181,2.181,0,0,1-1.65,2.113c-.537.136-1.307.314-2.188.464a11.48,11.48,0,0,1-.917,2.2c.517.729.935,1.4,1.218,1.868a2.17,2.17,0,0,1-.336,2.655l-1.029,1.023a2.2,2.2,0,0,1-2.668.333c-.475-.281-1.145-.7-1.877-1.211a11.568,11.568,0,0,1-2.212.913c-.151.877-.329,1.642-.466,2.176A2.188,2.188,0,0,1,15.7,29.8Z" transform="translate(50.048)"/>
    <path id="Path-3" data-name="Path" d="M12.975,5.058a1.173,1.173,0,0,0-2.286.527A4.224,4.224,0,1,1,8.363,2.73a1.168,1.168,0,1,0,1-2.114,6.533,6.533,0,1,0,3.617,4.442Z" transform="translate(58.45 8.359)"/>
  </g>
</svg>
