<svg xmlns="http://www.w3.org/2000/svg" width="130" height="34.996" viewBox="0 0 130 34.996">
  <path id="Fill_4" data-name="Fill 4" d="M.428,35h0L3.391,26.01H0l3.622-9.3h6.617L7.168,22.192h3.349Zm33.847-.075H23.926v-.187c2.015,0,2.354-1.021,2.354-4.084V13.339c0-3.494-.588-4.084-2.354-4.084V9.067H32.52v.187c-.173.13-.311.584-.411,1.349a5.671,5.671,0,0,1,4.334-1.911,8.436,8.436,0,0,1,6.057,2.4,9.978,9.978,0,0,1,2.611,7.231,10.033,10.033,0,0,1-2.568,7.232,8.444,8.444,0,0,1-6.1,2.4,5.816,5.816,0,0,1-4.559-2.137v4.834a7.722,7.722,0,0,0,.453,3.194c.334.624.914.89,1.938.89v.186ZM35.733,8.955a5.146,5.146,0,0,0-3.661,1.911,34.019,34.019,0,0,0-.187,4.01V25.591a5.275,5.275,0,0,0,3.848,2.06c3.132,0,3.774-3.73,3.774-9.329C39.506,12.7,38.865,8.955,35.733,8.955ZM23.288,28.395H14.01v-.152c.011,0,.944-.031,1.079-.406a1.093,1.093,0,0,0-.024-.8L8.3,8.914a.769.769,0,0,0-.725-.45H7.531a1.087,1.087,0,0,0-.853.381l-.167-.077,2.668-7.3h3.236c.088.238,9.4,25.56,9.587,26.021.289.718,1.278.754,1.288.754v.151ZM51.809,28h0a5.342,5.342,0,0,1-3.891-1.32,3.446,3.446,0,0,1-.9-2.625c.139-3.462,3.011-4.027,6.052-4.625A23.7,23.7,0,0,0,56.1,18.7a5.73,5.73,0,0,0,1.606-.823V14.425q0-.293,0-.577c.007-2.009.013-3.6-.805-4.417a2.33,2.33,0,0,0-1.737-.589c-2.219,0-3.909.756-4.521,2.023a1.563,1.563,0,0,0,.406,1.74,3.1,3.1,0,0,1,.566.995,1.5,1.5,0,0,1-.236,1.32,1.48,1.48,0,0,1-1.219.592,1.926,1.926,0,0,1-.377-.038,1.734,1.734,0,0,1-1.173-.908,2.628,2.628,0,0,1-.022-2.239c.582-1.35,2.645-3.634,6.688-3.634,2.426,0,8.07.61,8.07,6.257v8.73c0,2.561.083,4.01,1.794,4.01a2.275,2.275,0,0,0,1.271-.412V27.5a4.082,4.082,0,0,1-1.906.45,11.693,11.693,0,0,1-3.918-.548,3.886,3.886,0,0,1-2.77-2.936,5.428,5.428,0,0,1-3.363,3.147A9.241,9.241,0,0,1,51.809,28ZM57.7,18.1a7.152,7.152,0,0,1-1.419.675c-.193.071-.393.14-.586.206-1.671.573-3.4,1.165-3.6,4.215-.146,1.911.1,3.267.7,3.921a1.356,1.356,0,0,0,1.033.446,2.833,2.833,0,0,0,1.254-.357,5.826,5.826,0,0,0,2.69-3,4.145,4.145,0,0,1-.076-.712Zm20.939,9.851a13.442,13.442,0,0,1-7.375-1.987,8.486,8.486,0,0,1-2.653-2.777,9.541,9.541,0,0,1-1.233-4.225A8.753,8.753,0,0,1,69.5,12.375a12.159,12.159,0,0,1,8.42-3.645c.177-.011.357-.016.534-.016,3.428,0,6.078,2,6.79,3.351a2.826,2.826,0,0,1,.106,2.5,1.606,1.606,0,0,1-1.228.906,2.3,2.3,0,0,1-.349.027A1.7,1.7,0,0,1,82.1,13.226a2.8,2.8,0,0,1,.688-1.071c.392-.429.676-.74.17-1.477-.723-1.052-2.636-1.815-4.547-1.815-.166,0-.333.006-.5.017-1.755.137-3.138,1.327-4,3.442a15.09,15.09,0,0,0-.859,6.561A12.987,12.987,0,0,0,74.95,25a5.629,5.629,0,0,0,4.722,2.768,8.382,8.382,0,0,0,5.455-2.285v.449a9.649,9.649,0,0,1-5.417,1.986C79.356,27.937,79,27.948,78.641,27.948Zm43.343-.01a13.614,13.614,0,0,1-7.52-2.1,8.437,8.437,0,0,1-3.856-6.873,9.037,9.037,0,0,1,3.111-7.545,12.012,12.012,0,0,1,7.2-2.684c.237-.011.475-.016.705-.016a9.452,9.452,0,0,1,5.747,1.613A6.728,6.728,0,0,1,130,15.1H116.363a18.045,18.045,0,0,0-.187,3.784A13.158,13.158,0,0,0,118.025,25a5.623,5.623,0,0,0,4.764,2.768,10.03,10.03,0,0,0,3.489-.73,8.952,8.952,0,0,0,2.788-1.629v.449a12.906,12.906,0,0,1-6.24,2.061C122.549,27.93,122.265,27.938,121.984,27.938Zm-.82-19.066c-.079,0-.161,0-.243.008-3.251.176-4.251,3.9-4.558,6.107h8.369a10.974,10.974,0,0,0-.82-4.218A2.928,2.928,0,0,0,121.164,8.872ZM97.232,27.578H86.92V27.39h.006a1.851,1.851,0,0,0,1.9-.922,7.911,7.911,0,0,0,.448-3.2v-19C89.235,1.432,89,.187,86.92.187V0h8.593V.187c-.29.145-.635,1.237-.635,5.621v5.845c1.19-1.828,2.549-2.96,5.641-2.96a6.57,6.57,0,0,1,4.773,1.648,7.055,7.055,0,0,1,1.8,5.246v7.718c.037,3.064.383,4.084,2.354,4.084v.186H99.138V27.39h.006a1.873,1.873,0,0,0,1.913-.922,7.313,7.313,0,0,0,.435-3.2V14.875c0-.146,0-.295,0-.445v-.016c.008-1.774.016-3.784-.951-4.755a2.127,2.127,0,0,0-1.591-.592,4.918,4.918,0,0,0-4.073,2.96v11.24a7.319,7.319,0,0,0,.434,3.2,1.878,1.878,0,0,0,1.919.923v.187Z" fill="#121212"/>
</svg>
